<svg xmlns="http://www.w3.org/2000/svg" width="160" height="52" viewBox="0 0 160 52" fill="none">
  <rect width="159.475" height="51.9912" rx="10" fill="#2E2E46"/>
  <path d="M104.217 25.0872V27.6928H102.584V29.4015H104.217V35.2075C104.217 37.19 105.114 37.983 107.37 37.983C107.766 37.983 108.144 37.9358 108.474 37.8791V36.1893C108.191 36.2176 108.012 36.2365 107.7 36.2365C106.69 36.2365 106.246 35.7645 106.246 34.6882V29.4015H108.474V27.6928H106.246V25.0872H104.217Z" fill="white"/>
  <path d="M114.222 38.1246C117.224 38.1246 119.065 36.1138 119.065 32.7813C119.065 29.4676 117.215 27.4474 114.222 27.4474C111.22 27.4474 109.37 29.4676 109.37 32.7813C109.37 36.1138 111.211 38.1246 114.222 38.1246ZM114.222 36.3215C112.457 36.3215 111.466 35.0281 111.466 32.7813C111.466 30.5533 112.457 29.2505 114.222 29.2505C115.978 29.2505 116.979 30.5533 116.979 32.7813C116.979 35.0187 115.978 36.3215 114.222 36.3215Z" fill="white"/>
  <path d="M120.64 37.9263H122.67V31.8561C122.67 30.4117 123.756 29.4393 125.294 29.4393C125.653 29.4393 126.257 29.5054 126.427 29.562V27.5606C126.21 27.504 125.823 27.4757 125.521 27.4757C124.18 27.4757 123.038 28.212 122.745 29.2222H122.594V27.6456H120.64V37.9263Z" fill="white"/>
  <path d="M131.467 29.175C132.968 29.175 133.95 30.2229 133.997 31.8372H128.805C128.918 30.2323 129.966 29.175 131.467 29.175ZM133.988 35.1508C133.61 35.9533 132.77 36.397 131.543 36.397C129.919 36.397 128.871 35.2547 128.805 33.4515V33.3382H136.065V32.6302C136.065 29.4015 134.337 27.4474 131.476 27.4474C128.578 27.4474 126.737 29.5337 126.737 32.819C126.737 36.1043 128.54 38.1246 131.486 38.1246C133.837 38.1246 135.479 36.9917 135.942 35.1508H133.988Z" fill="white"/>
  <path d="M90.9062 34.1298C91.0627 36.6543 93.1665 38.2688 96.2976 38.2688C99.644 38.2688 101.738 36.576 101.738 33.8754C101.738 31.7521 100.544 30.5779 97.6479 29.9028L96.0921 29.5212C94.2526 29.0906 93.5089 28.5133 93.5089 27.5055C93.5089 26.2335 94.6636 25.4018 96.3955 25.4018C98.0393 25.4018 99.1744 26.2139 99.3798 27.5153H101.513C101.386 25.1376 99.2918 23.4644 96.4248 23.4644C93.3426 23.4644 91.2878 25.1376 91.2878 27.6523C91.2878 29.7267 92.4522 30.9595 95.006 31.5564L96.826 31.9967C98.6949 32.4371 99.5168 33.0829 99.5168 34.1592C99.5168 35.4116 98.2252 36.3216 96.464 36.3216C94.5755 36.3216 93.2643 35.4704 93.0784 34.1298H90.9062Z" fill="white"/>
  <path d="M69.8804 27.4757C68.4832 27.4757 67.2748 28.1743 66.6517 29.3449H66.5007V27.6456H64.5465V41.3438H66.5762V36.3687H66.7367C67.2748 37.4543 68.436 38.0963 69.8993 38.0963C72.4954 38.0963 74.1475 36.0477 74.1475 32.7813C74.1475 29.5148 72.4954 27.4757 69.8804 27.4757ZM69.3045 36.2743C67.6052 36.2743 66.5385 34.9337 66.5385 32.7907C66.5385 30.6383 67.6052 29.2977 69.314 29.2977C71.0321 29.2977 72.0612 30.6099 72.0612 32.7813C72.0612 34.962 71.0321 36.2743 69.3045 36.2743Z" fill="white"/>
  <path d="M81.2498 27.4757C79.8526 27.4757 78.6442 28.1743 78.0212 29.3449H77.8701V27.6456H75.9159V41.3438H77.9456V36.3687H78.1061C78.6442 37.4543 79.8054 38.0963 81.2687 38.0963C83.8649 38.0963 85.5169 36.0477 85.5169 32.7813C85.5169 29.5148 83.8649 27.4757 81.2498 27.4757ZM80.674 36.2743C78.9747 36.2743 77.9079 34.9337 77.9079 32.7907C77.9079 30.6383 78.9747 29.2977 80.6834 29.2977C82.4016 29.2977 83.4306 30.6099 83.4306 32.7813C83.4306 34.962 82.4016 36.2743 80.674 36.2743Z" fill="white"/>
  <path d="M60.9048 37.9263H63.2336L58.1357 23.8068H55.7776L50.6797 37.9263H52.9302L54.2316 34.1788H59.6132L60.9048 37.9263ZM56.8441 26.3705H57.0105L59.0555 32.3392H54.7893L56.8441 26.3705Z" fill="white"/>
  <path d="M52.0469 13.1559V19.9673H54.5061C56.5358 19.9673 57.7112 18.7164 57.7112 16.5404C57.7112 14.3974 56.5264 13.1559 54.5061 13.1559H52.0469ZM53.1042 14.1189H54.3881C55.7995 14.1189 56.635 15.0157 56.635 16.5545C56.635 18.1169 55.8136 19.0044 54.3881 19.0044H53.1042V14.1189Z" fill="white"/>
  <path d="M61.3109 20.0664C62.8119 20.0664 63.7324 19.061 63.7324 17.3947C63.7324 15.7379 62.8072 14.7278 61.3109 14.7278C59.8098 14.7278 58.8847 15.7379 58.8847 17.3947C58.8847 19.061 59.8051 20.0664 61.3109 20.0664ZM61.3109 19.1648C60.4282 19.1648 59.9326 18.5182 59.9326 17.3947C59.9326 16.2808 60.4282 15.6294 61.3109 15.6294C62.1888 15.6294 62.6892 16.2808 62.6892 17.3947C62.6892 18.5134 62.1888 19.1648 61.3109 19.1648Z" fill="white"/>
  <path d="M71.5708 14.8269H70.556L69.6403 18.7495H69.56L68.5027 14.8269H67.5303L66.473 18.7495H66.3974L65.477 14.8269H64.448L65.864 19.9673H66.9072L67.9646 16.1816H68.0448L69.1069 19.9673H70.1595L71.5708 14.8269Z" fill="white"/>
  <path d="M72.7396 19.9673H73.7544V16.9605C73.7544 16.158 74.2312 15.6577 74.9817 15.6577C75.7322 15.6577 76.091 16.0683 76.091 16.8944V19.9673H77.1058V16.6395C77.1058 15.4169 76.4733 14.7278 75.3263 14.7278C74.5522 14.7278 74.0424 15.0724 73.7922 15.6435H73.7167V14.8269H72.7396V19.9673Z" fill="white"/>
  <path d="M78.7041 19.9673H79.719V12.8208H78.7041V19.9673Z" fill="white"/>
  <path d="M83.5358 20.0664C85.0368 20.0664 85.9573 19.061 85.9573 17.3947C85.9573 15.7379 85.0321 14.7278 83.5358 14.7278C82.0347 14.7278 81.1096 15.7379 81.1096 17.3947C81.1096 19.061 82.03 20.0664 83.5358 20.0664ZM83.5358 19.1648C82.6531 19.1648 82.1575 18.5182 82.1575 17.3947C82.1575 16.2808 82.6531 15.6294 83.5358 15.6294C84.4137 15.6294 84.9141 16.2808 84.9141 17.3947C84.9141 18.5134 84.4137 19.1648 83.5358 19.1648Z" fill="white"/>
  <path d="M88.9811 19.1979C88.4288 19.1979 88.0276 18.9288 88.0276 18.4662C88.0276 18.0131 88.3486 17.7724 89.0566 17.7252L90.3122 17.6449V18.0745C90.3122 18.7117 89.7458 19.1979 88.9811 19.1979ZM88.7215 20.0523C89.3965 20.0523 89.9582 19.7596 90.265 19.2451H90.3452V19.9673H91.3223V16.4554C91.3223 15.3697 90.5954 14.7278 89.3068 14.7278C88.1409 14.7278 87.3101 15.2942 87.2063 16.1769H88.1881C88.3014 15.8135 88.6931 15.6058 89.2596 15.6058C89.9535 15.6058 90.3122 15.9126 90.3122 16.4554V16.8991L88.9197 16.9794C87.6972 17.0549 87.008 17.5883 87.008 18.5134C87.008 19.4528 87.7302 20.0523 88.7215 20.0523Z" fill="white"/>
  <path d="M94.7662 20.0523C95.4743 20.0523 96.0738 19.7171 96.3806 19.1554H96.4608V19.9673H97.4332V12.8208H96.4183V15.6435H96.3428C96.0643 15.0771 95.4696 14.7419 94.7662 14.7419C93.4682 14.7419 92.6327 15.771 92.6327 17.3947C92.6327 19.0232 93.4587 20.0523 94.7662 20.0523ZM95.0542 15.653C95.9038 15.653 96.4372 16.328 96.4372 17.3995C96.4372 18.4757 95.9085 19.1412 95.0542 19.1412C94.1951 19.1412 93.6806 18.4851 93.6806 17.3947C93.6806 16.3138 94.1998 15.653 95.0542 15.653Z" fill="white"/>
  <path d="M104.014 20.0664C105.515 20.0664 106.436 19.061 106.436 17.3947C106.436 15.7379 105.511 14.7278 104.014 14.7278C102.513 14.7278 101.588 15.7379 101.588 17.3947C101.588 19.061 102.508 20.0664 104.014 20.0664ZM104.014 19.1648C103.131 19.1648 102.636 18.5182 102.636 17.3947C102.636 16.2808 103.131 15.6294 104.014 15.6294C104.892 15.6294 105.393 16.2808 105.393 17.3947C105.393 18.5134 104.892 19.1648 104.014 19.1648Z" fill="white"/>
  <path d="M107.779 19.9673H108.794V16.9605C108.794 16.158 109.271 15.6577 110.021 15.6577C110.772 15.6577 111.13 16.0683 111.13 16.8944V19.9673H112.145V16.6395C112.145 15.4169 111.513 14.7278 110.366 14.7278C109.592 14.7278 109.082 15.0724 108.832 15.6435H108.756V14.8269H107.779V19.9673Z" fill="white"/>
  <path d="M116.819 13.5477V14.8505H116.003V15.7049H116.819V18.6078C116.819 19.5991 117.268 19.9956 118.396 19.9956C118.594 19.9956 118.783 19.972 118.948 19.9437V19.0988C118.807 19.1129 118.717 19.1224 118.561 19.1224C118.056 19.1224 117.834 18.8863 117.834 18.3482V15.7049H118.948V14.8505H117.834V13.5477H116.819Z" fill="white"/>
  <path d="M120.31 19.9673H121.325V16.9652C121.325 16.1864 121.788 15.6624 122.619 15.6624C123.336 15.6624 123.718 16.0778 123.718 16.8991V19.9673H124.733V16.6489C124.733 15.4264 124.058 14.7325 122.963 14.7325C122.189 14.7325 121.646 15.0771 121.396 15.653H121.316V12.8208H120.31V19.9673Z" fill="white"/>
  <path d="M128.394 15.5916C129.145 15.5916 129.636 16.1155 129.659 16.9227H127.063C127.12 16.1203 127.644 15.5916 128.394 15.5916ZM129.655 18.5795C129.466 18.9808 129.046 19.2026 128.432 19.2026C127.62 19.2026 127.096 18.6315 127.063 17.7299V17.6732H130.693V17.3192C130.693 15.7049 129.829 14.7278 128.399 14.7278C126.95 14.7278 126.03 15.771 126.03 17.4136C126.03 19.0563 126.931 20.0664 128.404 20.0664C129.579 20.0664 130.4 19.5 130.632 18.5795H129.655Z" fill="white"/>
  <path d="M39.6689 26.3369C39.6936 24.4251 40.7203 22.6161 42.3491 21.6148C41.3215 20.1473 39.6005 19.2168 37.8099 19.1608C35.9001 18.9604 34.0486 20.3036 33.0754 20.3036C32.0834 20.3036 30.585 19.1807 28.9714 19.2139C26.8683 19.2819 24.9076 20.4776 23.8843 22.3163C21.6848 26.1245 23.3255 31.7213 25.4324 34.7995C26.4866 36.3068 27.7186 37.9906 29.3307 37.9309C30.9082 37.8654 31.4974 36.9249 33.4016 36.9249C35.2881 36.9249 35.8409 37.9309 37.4857 37.8929C39.1784 37.8654 40.2449 36.3789 41.2621 34.8573C42.0195 33.7832 42.6023 32.5962 42.989 31.3401C40.9997 30.4988 39.6712 28.4968 39.6689 26.3369Z" fill="white"/>
  <path d="M36.5622 17.1364C37.4851 16.0284 37.9398 14.6043 37.8297 13.1665C36.4197 13.3146 35.1172 13.9885 34.1817 15.054C33.267 16.095 32.791 17.4941 32.881 18.8769C34.2916 18.8914 35.6783 18.2358 36.5622 17.1364Z" fill="white"/>
</svg>