<svg xmlns="http://www.w3.org/2000/svg" width="177" height="52" viewBox="0 0 177 52" fill="none">
  <rect width="176.534" height="51.9912" rx="10" fill="#2E2E46"/>
  <path d="M88.99 27.9871C86.315 27.9871 84.1348 30.0217 84.1348 32.8241C84.1348 35.6093 86.315 37.661 88.99 37.661C91.6661 37.661 93.8463 35.6093 93.8463 32.8241C93.8451 30.0217 91.6649 27.9871 88.99 27.9871ZM88.99 35.7572C87.524 35.7572 86.2604 34.5482 86.2604 32.8252C86.2604 31.084 87.5251 29.8932 88.99 29.8932C90.456 29.8932 91.7195 31.084 91.7195 32.8252C91.7195 34.5471 90.456 35.7572 88.99 35.7572ZM78.3971 27.9871C75.7222 27.9871 73.5419 30.0217 73.5419 32.8241C73.5419 35.6093 75.7222 37.661 78.3971 37.661C81.0732 37.661 83.2534 35.6093 83.2534 32.8241C83.2534 30.0217 81.0732 27.9871 78.3971 27.9871ZM78.3971 35.7572C76.9311 35.7572 75.6676 34.5482 75.6676 32.8252C75.6676 31.084 76.9322 29.8932 78.3971 29.8932C79.8631 29.8932 81.1266 31.084 81.1266 32.8252C81.1278 34.5471 79.8631 35.7572 78.3971 35.7572ZM65.798 29.4724V31.5241H70.7089C70.5622 32.6785 70.1778 33.5212 69.5909 34.1069C68.8767 34.8212 67.7587 35.6093 65.798 35.6093C62.7751 35.6093 60.4117 33.1721 60.4117 30.1491C60.4117 27.1262 62.7751 24.6889 65.798 24.6889C67.4289 24.6889 68.6197 25.3303 69.4988 26.1549L70.9466 24.7071C69.7183 23.5345 68.0885 22.6372 65.798 22.6372C61.6571 22.6372 58.1758 26.0082 58.1758 30.1491C58.1758 34.2901 61.6571 37.661 65.798 37.661C68.0328 37.661 69.7194 36.9275 71.0376 35.5536C72.3933 34.1979 72.8152 32.2918 72.8152 30.753C72.8152 30.2776 72.7788 29.8375 72.7049 29.4713H65.798V29.4724ZM117.327 31.0658C116.925 29.9853 115.696 27.9871 113.186 27.9871C110.694 27.9871 108.623 29.9478 108.623 32.8241C108.623 35.5354 110.676 37.661 113.424 37.661C115.64 37.661 116.923 36.3054 117.456 35.5172L115.807 34.4174C115.257 35.2238 114.505 35.7549 113.424 35.7549C112.343 35.7549 111.573 35.2602 111.079 34.2889L117.547 31.614L117.327 31.0658ZM110.731 32.6785C110.676 30.8088 112.179 29.8568 113.26 29.8568C114.103 29.8568 114.817 30.2788 115.056 30.8827L110.731 32.6785ZM105.473 37.3687H107.597V23.1513H105.473V37.3687ZM101.991 29.0687H101.918C101.441 28.5 100.525 27.9871 99.3713 27.9871C96.9523 27.9871 94.7357 30.1127 94.7357 32.8434C94.7357 35.5547 96.9523 37.6622 99.3713 37.6622C100.526 37.6622 101.441 37.1492 101.918 36.5635H101.991V37.2596C101.991 39.11 101.001 40.0994 99.4077 40.0994C98.1066 40.0994 97.3003 39.1657 96.9705 38.3775L95.1201 39.1475C95.6512 40.4292 97.0614 42.0055 99.4077 42.0055C101.9 42.0055 104.007 40.5396 104.007 36.9661V28.2817H101.992V29.0687H101.991ZM99.5544 35.7572C98.0884 35.7572 96.8613 34.5289 96.8613 32.8434C96.8613 31.1386 98.0884 29.8932 99.5544 29.8932C101.001 29.8932 102.137 31.1386 102.137 32.8434C102.137 34.5289 101.001 35.7572 99.5544 35.7572ZM127.283 23.1513H122.198V37.3687H124.319V31.9825H127.282C129.634 31.9825 131.947 30.2799 131.947 27.5674C131.947 24.855 129.635 23.1513 127.283 23.1513ZM127.338 30.0035H124.319V25.1302H127.338C128.924 25.1302 129.825 26.4438 129.825 27.5674C129.825 28.6683 128.924 30.0035 127.338 30.0035ZM140.453 27.9621C138.917 27.9621 137.326 28.6388 136.667 30.1389L138.55 30.9248C138.953 30.1389 139.704 29.8819 140.49 29.8819C141.587 29.8819 142.703 30.5404 142.721 31.7106V31.8574C142.336 31.6379 141.513 31.3092 140.508 31.3092C138.478 31.3092 136.41 32.4249 136.41 34.5096C136.41 36.4123 138.075 37.6371 139.94 37.6371C141.366 37.6371 142.153 36.9968 142.647 36.2462H142.72V37.3437H144.769V31.8926C144.77 29.3701 142.885 27.9621 140.453 27.9621ZM140.196 35.7538C139.502 35.7538 138.532 35.4058 138.532 34.5459C138.532 33.4484 139.74 33.0276 140.783 33.0276C141.714 33.0276 142.155 33.2289 142.721 33.503C142.556 34.8212 141.422 35.7538 140.196 35.7538ZM152.232 28.2726L149.8 34.4368H149.727L147.202 28.2726H144.916L148.702 36.8877L146.543 41.6803H148.757L154.592 28.2726H152.232ZM133.119 37.3687H135.24V23.1513H133.119V37.3687Z" fill="white"/>
  <path fill-rule="evenodd" clip-rule="evenodd" d="M92.7131 10.9858C91.697 10.9858 90.8444 11.3389 90.1605 12.0426C89.4757 12.7459 89.1346 13.6081 89.1346 14.6235C89.1346 15.6389 89.4757 16.5011 90.1605 17.2044C90.8445 17.9081 91.6971 18.26 92.7131 18.26C93.7292 18.26 94.5818 17.9081 95.267 17.2043C95.9505 16.5011 96.2928 15.639 96.2928 14.6235C96.2928 13.6135 95.9492 12.7537 95.2624 12.0472C94.5752 11.3402 93.7238 10.9858 92.7131 10.9858ZM90.1741 14.6235C90.1741 13.8466 90.4216 13.2127 90.9107 12.7158C91.4018 12.2191 92.0008 11.9707 92.7131 11.9707C93.4256 11.9707 94.0257 12.2181 94.5155 12.7158C95.0058 13.2126 95.2533 13.8466 95.2533 14.6235C95.2533 15.4004 95.0058 16.0344 94.5155 16.5312C94.0256 17.0278 93.4255 17.2763 92.7131 17.2763C92.0008 17.2763 91.4019 17.029 90.9108 16.5313C90.4216 16.0344 90.1741 15.4005 90.1741 14.6235Z" fill="white"/>
  <path d="M62.0742 10.9881C61.0707 10.9881 60.2141 11.3365 59.5122 12.0337C58.8087 12.7303 58.457 13.5952 58.457 14.6246C58.457 15.6529 58.8087 16.5178 59.5122 17.2155C60.2141 17.9115 61.0707 18.26 62.0742 18.26C63.1194 18.26 63.976 17.9171 64.6326 17.2283C65.2135 16.6459 65.5004 15.8677 65.5004 14.8998C65.5004 14.7306 65.4852 14.5543 65.4502 14.3711L65.439 14.3124H62.0009V15.2768H64.4716C64.4119 15.8166 64.2286 16.2339 63.9281 16.5355C63.4342 17.0293 62.8172 17.2762 62.0731 17.2762C61.3733 17.2762 60.7702 17.0312 60.2591 16.539C59.7506 16.0492 59.4954 15.4126 59.4954 14.6235C59.4954 13.8343 59.7506 13.1977 60.2591 12.7079C60.7702 12.2157 61.3733 11.9707 62.0731 11.9707C62.8498 11.9707 63.4504 12.233 63.8863 12.7545L63.937 12.8152L64.6388 12.112L64.5964 12.0613C64.3218 11.734 63.9559 11.4741 63.5027 11.2794C63.0501 11.0855 62.5729 10.9881 62.0742 10.9881Z" fill="white"/>
  <path d="M70.7434 11.1394H66.615V18.1076H70.7434V17.1239H67.6363V15.1052H70.4386V14.1407H67.6363V12.122H70.7434V11.1394Z" fill="white"/>
  <path d="M76.3468 11.1394H71.5133V12.122H73.4194V18.1076H74.4407V12.122H76.3468V11.1394Z" fill="white"/>
  <path d="M80.6162 11.1394H79.5949V18.1076H80.6162V11.1394Z" fill="white"/>
  <path d="M86.411 11.1394H81.5775V12.122H83.4836V18.1076H84.5049V12.122H86.411V11.1394Z" fill="white"/>
  <path d="M98.558 11.1394H97.379V18.1076H98.398L98.398 13.7842L98.3662 12.6708L101.756 18.1076H102.783V11.1394H101.762V15.2047L101.762 15.2067L101.794 16.3184L98.558 11.1394Z" fill="white"/>
  <g filter="url(#filter0_ii_3119_5180)">
    <path d="M23.3664 11.8213C23.0355 12.1716 22.8398 12.7152 22.8398 13.4192V38.5719C22.8398 39.277 23.0355 39.8195 23.3664 40.1698L23.4506 40.2517L37.5407 26.1616V25.9956V25.8295L23.4506 11.7383L23.3664 11.8213Z" fill="url(#paint0_linear_3119_5180)"/>
    <path d="M42.235 30.8602L37.5391 26.162V25.9959V25.8299L42.2361 21.1328L42.3419 21.1931L47.9068 24.3548C49.4956 25.2578 49.4956 26.7352 47.9068 27.6393L42.3419 30.8011L42.235 30.8602Z" fill="url(#paint1_linear_3119_5180)"/>
    <g filter="url(#filter1_i_3119_5180)">
      <path d="M42.3443 30.8006L37.5403 25.9966L23.3672 40.1708C23.8903 40.7258 24.7558 40.7941 25.7305 40.2414L42.3443 30.8006Z" fill="url(#paint2_linear_3119_5180)"/>
    </g>
    <path d="M42.3443 21.192L25.7305 11.7523C24.7558 11.1985 23.8903 11.2678 23.3672 11.8229L37.5414 25.9971L42.3443 21.192Z" fill="url(#paint3_linear_3119_5180)"/>
  </g>
  <defs>
    <filter id="filter0_ii_3119_5180" x="22.8398" y="11.3701" width="26.2585" height="29.253" filterUnits="userSpaceOnUse" color-interpolation-filters="sRGB">
      <feFlood flood-opacity="0" result="BackgroundImageFix"/>
      <feBlend mode="normal" in="SourceGraphic" in2="BackgroundImageFix" result="shape"/>
      <feColorMatrix in="SourceAlpha" type="matrix" values="0 0 0 0 0 0 0 0 0 0 0 0 0 0 0 0 0 0 127 0" result="hardAlpha"/>
      <feOffset dy="-0.15"/>
      <feComposite in2="hardAlpha" operator="arithmetic" k2="-1" k3="1"/>
      <feColorMatrix type="matrix" values="0 0 0 0 0 0 0 0 0 0 0 0 0 0 0 0 0 0 0.12 0"/>
      <feBlend mode="normal" in2="shape" result="effect1_innerShadow_3119_5180"/>
      <feColorMatrix in="SourceAlpha" type="matrix" values="0 0 0 0 0 0 0 0 0 0 0 0 0 0 0 0 0 0 127 0" result="hardAlpha"/>
      <feOffset dy="0.15"/>
      <feComposite in2="hardAlpha" operator="arithmetic" k2="-1" k3="1"/>
      <feColorMatrix type="matrix" values="0 0 0 0 1 0 0 0 0 1 0 0 0 0 1 0 0 0 0.25 0"/>
      <feBlend mode="normal" in2="effect1_innerShadow_3119_5180" result="effect2_innerShadow_3119_5180"/>
    </filter>
    <filter id="filter1_i_3119_5180" x="23.3672" y="25.9966" width="18.9771" height="14.6265" filterUnits="userSpaceOnUse" color-interpolation-filters="sRGB">
      <feFlood flood-opacity="0" result="BackgroundImageFix"/>
      <feBlend mode="normal" in="SourceGraphic" in2="BackgroundImageFix" result="shape"/>
      <feColorMatrix in="SourceAlpha" type="matrix" values="0 0 0 0 0 0 0 0 0 0 0 0 0 0 0 0 0 0 127 0" result="hardAlpha"/>
      <feOffset dy="-0.15"/>
      <feComposite in2="hardAlpha" operator="arithmetic" k2="-1" k3="1"/>
      <feColorMatrix type="matrix" values="0 0 0 0 0 0 0 0 0 0 0 0 0 0 0 0 0 0 0.08 0"/>
      <feBlend mode="normal" in2="shape" result="effect1_innerShadow_3119_5180"/>
    </filter>
    <linearGradient id="paint0_linear_3119_5180" x1="36.2917" y1="13.1531" x2="17.2054" y2="32.2394" gradientUnits="userSpaceOnUse">
      <stop stop-color="#00A0FF"/>
      <stop offset="0.0066" stop-color="#00A1FF"/>
      <stop offset="0.2601" stop-color="#00BEFF"/>
      <stop offset="0.5122" stop-color="#00D2FF"/>
      <stop offset="0.7604" stop-color="#00DFFF"/>
      <stop offset="1" stop-color="#00E3FF"/>
    </linearGradient>
    <linearGradient id="paint1_linear_3119_5180" x1="49.9749" y1="25.9959" x2="22.4568" y2="25.9959" gradientUnits="userSpaceOnUse">
      <stop stop-color="#FFE000"/>
      <stop offset="0.4087" stop-color="#FFBD00"/>
      <stop offset="0.7754" stop-color="#FFA500"/>
      <stop offset="1" stop-color="#FF9C00"/>
    </linearGradient>
    <linearGradient id="paint2_linear_3119_5180" x1="39.7354" y1="28.6054" x2="13.852" y2="54.4889" gradientUnits="userSpaceOnUse">
      <stop stop-color="#FF3A44"/>
      <stop offset="1" stop-color="#C31162"/>
    </linearGradient>
    <linearGradient id="paint3_linear_3119_5180" x1="19.7976" y1="3.44977" x2="31.3553" y2="15.0074" gradientUnits="userSpaceOnUse">
      <stop stop-color="#32A071"/>
      <stop offset="0.0685" stop-color="#2DA771"/>
      <stop offset="0.4762" stop-color="#15CF74"/>
      <stop offset="0.8009" stop-color="#06E775"/>
      <stop offset="1" stop-color="#00F076"/>
    </linearGradient>
  </defs>
</svg>