<svg xmlns="http://www.w3.org/2000/svg" width="36" height="36" viewBox="0 0 36 36" fill="none">
  <circle cx="18" cy="18" r="18" fill="#F94A3D"/>
  <path fill-rule="evenodd" clip-rule="evenodd" d="M21.5986 13.725H21.7693C24.0127 13.725 25.8333 15.6 25.8333 17.9V22.5C25.8333 24.8 24.0127 26.6667 21.7693 26.6667H14.064C11.8207 26.6667 10 24.8 10 22.5V17.9C10 15.6 11.8207 13.725 14.064 13.725H14.2347C14.2509 12.725 14.633 11.7917 15.3238 11.0917C16.0228 10.3833 16.9169 10.025 17.9248 10C19.9405 10 21.5743 11.6667 21.5986 13.725ZM16.1765 11.9833C15.7213 12.45 15.4694 13.0667 15.4531 13.725H20.3787C20.3543 12.3583 19.2652 11.25 17.924 11.25C17.2982 11.25 16.6479 11.5083 16.1765 11.9833ZM21.0041 16.9335C21.3455 16.9335 21.6137 16.6501 21.6137 16.3085V15.3418C21.6137 15.0001 21.3455 14.7168 21.0041 14.7168C20.6709 14.7168 20.3945 15.0001 20.3945 15.3418V16.3085C20.3945 16.6501 20.6709 16.9335 21.0041 16.9335ZM15.3637 16.3085C15.3637 16.6501 15.0955 16.9335 14.7541 16.9335C14.4209 16.9335 14.1445 16.6501 14.1445 16.3085V15.3418C14.1445 15.0001 14.4209 14.7168 14.7541 14.7168C15.0955 14.7168 15.3637 15.0001 15.3637 15.3418V16.3085Z" fill="white"/>
</svg>