<svg xmlns="http://www.w3.org/2000/svg" width="17" height="16" viewBox="0 0 17 16" fill="none">
  <path fill-rule="evenodd" clip-rule="evenodd" d="M11.5417 0.00013306C12.0675 0.00013306 12.5925 0.0742997 13.0917 0.2418C16.1675 1.2418 17.2758 4.6168 16.35 7.5668C15.825 9.0743 14.9667 10.4501 13.8425 11.5743C12.2333 13.1326 10.4675 14.516 8.56668 15.7076L8.35835 15.8335L8.14168 15.6993C6.23418 14.516 4.45835 13.1326 2.83418 11.566C1.71751 10.4418 0.858347 9.0743 0.325014 7.5668C-0.616653 4.6168 0.491681 1.2418 3.60085 0.2243C3.84251 0.140966 4.09168 0.0826331 4.34168 0.0501331H4.44168C4.67585 0.0159664 4.90835 0.00013306 5.14168 0.00013306H5.23335C5.75835 0.0159664 6.26668 0.107633 6.75918 0.275133H6.80835C6.84168 0.290966 6.86668 0.308466 6.88335 0.3243C7.06751 0.383466 7.24168 0.450133 7.40835 0.5418L7.72501 0.683466C7.80153 0.724277 7.88742 0.786634 7.96165 0.840526C8.00868 0.874671 8.05103 0.905417 8.08335 0.925133C8.09694 0.933155 8.11076 0.941222 8.12469 0.949355C8.19615 0.991066 8.27058 1.03452 8.33335 1.08263C9.25918 0.375133 10.3833 -0.00820027 11.5417 0.00013306ZM13.758 6.00021C14.0997 5.99104 14.3913 5.71688 14.4163 5.36604V5.26688C14.4413 4.09938 13.7338 3.04188 12.658 2.63355C12.3163 2.51605 11.9413 2.70021 11.8163 3.05021C11.6997 3.40021 11.883 3.78355 12.233 3.90771C12.7672 4.10771 13.1247 4.63354 13.1247 5.21604V5.24188C13.1088 5.43271 13.1663 5.61688 13.283 5.75854C13.3997 5.90021 13.5747 5.98271 13.758 6.00021Z" fill="#F94A3D"/>
</svg>