<svg xmlns="http://www.w3.org/2000/svg" width="16" height="17" viewBox="0 0 16 17" fill="none">
  <path d="M5.52898 15.6445V13.0963C5.52898 12.4459 6.06014 11.9186 6.71536 11.9186H9.11051C9.42516 11.9186 9.72692 12.0427 9.94941 12.2635C10.1719 12.4844 10.2969 12.784 10.2969 13.0963V15.6445C10.2949 15.9149 10.4017 16.1749 10.5936 16.3668C10.7856 16.5587 11.0467 16.6667 11.3191 16.6667H12.9532C13.7164 16.6686 14.449 16.369 14.9893 15.834C15.5297 15.299 15.8333 14.5725 15.8333 13.8149V6.55572C15.8333 5.94372 15.5601 5.3632 15.0872 4.97056L9.52835 0.563224C8.56138 -0.209532 7.17593 -0.184582 6.23783 0.622482L0.805844 4.97056C0.310617 5.35163 0.0146269 5.93386 0 6.55572V13.8074C0 15.3865 1.28948 16.6667 2.88014 16.6667H4.47691C5.04269 16.6667 5.5025 16.2135 5.5066 15.6519L5.52898 15.6445Z" fill="#F94A3D"/>
</svg>