<svg xmlns="http://www.w3.org/2000/svg" width="15" height="17" viewBox="0 0 15 17" fill="none">
  <path fill-rule="evenodd" clip-rule="evenodd" d="M12.6726 5.66361C12.6726 6.71022 12.9492 7.3271 13.5579 8.03799C14.0192 8.56172 14.1667 9.234 14.1667 9.96335C14.1667 10.6919 13.9273 11.3834 13.4478 11.9449C12.82 12.6181 11.9346 13.0478 11.031 13.1225C9.72162 13.2341 8.41138 13.3281 7.08375 13.3281C5.75529 13.3281 4.44587 13.2719 3.13646 13.1225C2.23205 13.0478 1.34668 12.6181 0.719721 11.9449C0.240183 11.3834 0 10.6919 0 9.96335C0 9.234 0.148251 8.56172 0.60874 8.03799C1.23653 7.3271 1.49493 6.71022 1.49493 5.66361V5.30858C1.49493 3.90695 1.84444 2.99043 2.56416 2.09322C3.63422 0.784747 5.34946 0 7.04648 0H7.12102C8.85448 0 10.6252 0.822516 11.677 2.18722C12.3595 3.06597 12.6726 3.94388 12.6726 5.30858V5.66361ZM4.64453 15.0507C4.64453 14.6311 5.02965 14.4389 5.38579 14.3566C5.80238 14.2685 8.34087 14.2685 8.75746 14.3566C9.11359 14.4389 9.49872 14.6311 9.49872 15.0507C9.47801 15.4502 9.24362 15.8044 8.91979 16.0294C8.49989 16.3567 8.0071 16.564 7.49194 16.6387C7.20704 16.6756 6.9271 16.6765 6.65213 16.6387C6.13615 16.564 5.64336 16.3567 5.22428 16.0285C4.89962 15.8044 4.66524 15.4502 4.64453 15.0507Z" fill="#F94A3D"/>
</svg>