<svg xmlns="http://www.w3.org/2000/svg" width="124" height="30" viewBox="0 0 124 30" fill="none">
  <path d="M117.047 0H100.515C96.7958 0 93.781 3.01475 93.781 6.73363V23.2664C93.781 26.9852 96.7958 30 100.515 30H117.047C120.766 30 123.781 26.9852 123.781 23.2664V6.73363C123.781 3.01475 120.766 0 117.047 0Z" fill="#252525"/>
  <path d="M105.277 12.9767H102.877V20.0065H105.277V12.9767Z" fill="white"/>
  <path d="M104.874 9.69599C104.645 9.55746 104.376 9.48352 104.101 9.48352C103.918 9.48352 103.736 9.51644 103.566 9.5804C103.397 9.64436 103.243 9.73808 103.114 9.85619C102.984 9.9743 102.882 10.1145 102.813 10.2686C102.743 10.4228 102.708 10.5879 102.709 10.7544C102.71 11.004 102.793 11.2476 102.947 11.4545C103.101 11.6613 103.319 11.8221 103.574 11.9167C103.828 12.0112 104.108 12.0352 104.378 11.9856C104.647 11.936 104.894 11.8151 105.088 11.6381C105.282 11.4611 105.414 11.2359 105.467 10.991C105.52 10.7461 105.492 10.4924 105.387 10.2619C105.281 10.0314 105.103 9.83452 104.874 9.69599Z" fill="white"/>
  <path d="M109.131 12.9763H106.818L106.81 20.0207H109.211V16.5421C109.211 15.627 109.403 14.741 110.651 14.741C111.899 14.741 111.899 15.7941 111.899 16.6074V20.0062H114.3V16.1499C114.3 14.2545 113.812 12.802 111.411 12.802C110.954 12.7858 110.5 12.8826 110.098 13.0821C109.697 13.2816 109.362 13.5764 109.131 13.9349V12.9763Z" fill="white"/>
  <path d="M76.8575 25.8333C76.8575 26.9384 76.4186 27.9982 75.6372 28.7796C74.8558 29.561 73.7959 30 72.6909 30H51.0242C49.9191 30 48.8593 29.561 48.0779 28.7796C47.2965 27.9982 46.8575 26.9384 46.8575 25.8333V4.16667C46.8575 3.0616 47.2965 2.00179 48.0779 1.22039C48.8593 0.438987 49.9191 0 51.0242 0H72.6909C73.7959 0 74.8558 0.438987 75.6372 1.22039C76.4186 2.00179 76.8575 3.0616 76.8575 4.16667V25.8333Z" fill="#252525"/>
  <path d="M67.652 11.5954C67.226 11.7905 66.6866 11.9737 66.2031 12.0346C66.6948 11.7331 67.4748 11.1052 67.652 10.5372C67.1927 10.8162 66.362 11.1142 65.8202 11.222C65.3874 10.7479 64.7702 10.5372 64.0864 10.5372C62.7727 10.5372 61.8566 11.6877 61.8566 13.0329V14.0311C59.9247 14.0311 58.0412 12.5103 56.8691 11.0364C56.6571 11.4079 56.5459 11.8315 56.5469 12.2627C56.5469 13.1706 57.354 14.092 57.9929 14.5303C57.6032 14.5178 56.8652 14.2103 56.5441 14.0311V14.0596C56.5441 15.241 57.3462 16.0431 58.4334 16.2667C58.2349 16.3231 57.9929 16.5268 57.0618 16.5268C57.3641 17.4926 58.884 18.0032 59.9247 18.0242C59.1105 18.6765 57.6587 19.0224 56.5441 19.0224C56.3514 19.0224 56.247 19.0334 56.0611 19.011C57.113 19.6998 58.5821 20.0207 59.9247 20.0207C64.2989 20.0207 66.6861 16.5677 66.6861 13.3473C66.6861 13.2415 66.6827 12.8871 66.6774 12.7833C67.1449 12.4429 67.3342 12.0865 67.652 11.5954Z" fill="white"/>
  <path d="M26.25 0H3.75C1.68187 0 0 1.68187 0 3.75V26.25C0 28.3181 1.68187 30 3.75 30H26.25C28.3181 30 30 28.3181 30 26.25V3.75C30 1.68187 28.3181 0 26.25 0Z" fill="#252525"/>
  <path fill-rule="evenodd" clip-rule="evenodd" d="M18.9669 13.2931H16.5082V11.3478C16.5082 10.8109 16.9488 10.8615 17.4917 10.8615H18.4752V8.42981H16.5082C15.7257 8.42981 14.9753 8.73724 14.422 9.28447C13.8687 9.8317 13.5578 10.5739 13.5578 11.3478V13.2931H11.5909V15.7248H13.5578V21.0744H16.5082V15.7248H17.9834L18.9669 13.2931Z" fill="white"/>
</svg>