<svg xmlns="http://www.w3.org/2000/svg" width="96" height="17" viewBox="0 0 96 17" fill="none">
  <path d="M8.5 0L10.9981 5.06168L16.584 5.87336L12.542 9.81332L13.4962 15.3766L8.5 12.75L3.50383 15.3766L4.45801 9.81332L0.416019 5.87336L6.00191 5.06168L8.5 0Z" fill="#FF9401"/>
  <path d="M28.0499 0L30.548 5.06168L36.1339 5.87336L32.0919 9.81332L33.0461 15.3766L28.0499 12.75L23.0538 15.3766L24.0079 9.81332L19.9659 5.87336L25.5518 5.06168L28.0499 0Z" fill="#FF9401"/>
  <path d="M47.6 0L50.0981 5.06168L55.684 5.87336L51.642 9.81332L52.5962 15.3766L47.6 12.75L42.6039 15.3766L43.558 9.81332L39.5161 5.87336L45.1019 5.06168L47.6 0Z" fill="#FF9401"/>
  <path d="M67.15 0L69.6481 5.06168L75.2339 5.87336L71.192 9.81332L72.1461 15.3766L67.15 12.75L62.1538 15.3766L63.108 9.81332L59.066 5.87336L64.6519 5.06168L67.15 0Z" fill="#FF9401"/>
  <path d="M86.7001 0L89.1982 5.06168L94.7841 5.87336L90.7421 9.81332L91.6962 15.3766L86.7001 12.75L81.7039 15.3766L82.6581 9.81332L78.6161 5.87336L84.202 5.06168L86.7001 0Z" fill="#FF9401"/>
</svg>